<?xml version="1.0" encoding="utf-8"?>
<!-- Generator: Adobe Illustrator 26.3.1, SVG Export Plug-In . SVG Version: 6.00 Build 0)  -->
<svg version="1.1" id="Capa_1" xmlns="http://www.w3.org/2000/svg" xmlns:xlink="http://www.w3.org/1999/xlink" x="0px" y="0px"
	 viewBox="0 0 595.3 841.9" style="enable-background:new 0 0 595.3 841.9;" xml:space="preserve">
<g>
	<g>
		<path d="M365.2,443.1c0.4-0.3,0.8-0.7,1.1-1c-2.6,2.2-5.2,4.2-7.9,6.2C360.7,446.7,363,444.9,365.2,443.1z"/>
		<path d="M272.9,422.2c-17.1-22.6-25.7-48.1-26.1-76.3c-0.2-16.1,0-32.2,0-48.3c0-7.7,3.6-12.3,11.2-14.2
			c22.6-5.8,45.4-8.9,68.3-9.1c-23,0.2-45.8,3.3-68.4,9.1c-7.6,1.9-11.2,6.5-11.2,14.2c-0.1,16.1-0.2,32.2,0,48.3
			c0.4,28.2,9,53.7,26.1,76.3c11.2,14.8,25.5,25.8,41,35.6c4.7,3,9.9,4.4,15.3,4.3c-5.3,0.1-10.5-1.3-15.2-4.3
			C298.5,448.1,284.1,437,272.9,422.2z"/>
		<path d="M369.3,439.6c-0.4,0.4-0.8,0.7-1.2,1C368.4,440.3,368.9,440,369.3,439.6z"/>
		<path d="M295.3,455.9c-2.3-2.3-4.5-1.8-7.5-0.9c-7.8,2.4-15.8,4.5-23.9,5.9c-5.5,1.1-11.2,1.2-16.8,1.7c0,0.5,0,0.4-0.1,0.9
			c0,0,0,0,0,0c0.1-0.4,0.1-0.3,0.1-0.6c5.6-0.5,11.3-0.6,16.8-1.7c8.1-1.6,16.1-3.6,23.9-6.1c3-1,5.2-1.5,7.5,0.9
			c0.7,0.7,1.6,1.2,2.7,2c0,0,0,0,0-0.1C296.9,457.1,296,456.6,295.3,455.9z"/>
		<path d="M411.5,324c-0.1,0-0.2,0-0.3,0c0,7.7,0.3,15.5,0.2,23.2c0.1-1.7,0.1-3.5,0.1-8.8c0.2,0-0.2-14.3,0-14.3
			C411.5,324.1,411.5,324,411.5,324z"/>
		<path d="M203.7,420.3c1.8,0.9,4,0.6,5.3-1C207.7,420.8,205.5,421.2,203.7,420.3z"/>
		<path d="M201.3,416.4c0-0.3,0-0.6,0.1-0.9C201.4,415.8,201.3,416.1,201.3,416.4z"/>
		<path d="M239.8,411.1c2,0.7,4.2-0.2,5.2-2l0.1-0.2L245,409C244,410.9,241.8,411.7,239.8,411.1c-11.3-4.1-21-2-29.2,6.4
			C218.8,409.1,228.5,407,239.8,411.1z"/>
		<path d="M420.5,297c0-10.7-7.4-20.1-17.9-22.4c-11.1-2.4-22.2-4.8-33.5-6.5c-38.5-5.7-76.6-3.1-114.3,6.7
			c-10.5,2.7-17.1,11.2-17.1,22c0,9.1,0,18.1,0,27.2c0,1.8-0.5,2.5-2.3,3.1c-11.9,4.2-24,8.2-35.6,13.1c-9.9,4.2-19.3,9.4-28.8,14.5
			c-5.6,3-8.3,8.5-10.1,14.4v8.5c0.2,0.3,0.5,0.6,0.6,0.9c4.1,15.5,8.1,31.1,12.3,46.6c9.3,34.1,28.7,61,58.4,80.3
			c12,7.8,25.3,12.8,38.7,17.5c14.7,5.1,31.2,1.3,42-9.9c11.3-11.6,21.2-24.4,28.1-39.3c1.8-3.8,4.3-6.1,7.8-8.5
			c9.8-6.6,19.8-13.3,28.4-21.3c25.6-23.6,40.1-53.2,42.5-88C421.2,336.5,420.4,316.7,420.5,297z M323.1,486.8
			c-4.9,6.7-10.1,13.3-15.7,19.5c-8.5,9.4-19.4,12.7-31.5,8.9c-14.5-4.6-28.8-10.2-41.5-19c-26-17.8-43.1-42-51.6-72.4
			c-4.2-15.2-8.1-30.5-12.2-45.7c-2-7.5,0.1-12.6,6.9-16.5c18.6-10.7,38.1-19,58.6-25.1c0.4-0.1,0.8-0.2,1.6-0.4
			c-1.4,43.9,13.4,81,46,111c-7.2,3-14.3,4.8-21.8,5.5c-11,1-22.1,1.9-33.1,2.7c-2.7,0.2-4.8,0.9-5.2,3.9c-0.4,2.9,1.4,4.3,3.8,5.4
			c13.8,6.2,27.5,12.5,41.2,18.7c10.2,4.6,20.9,1.9,27.7-7.2c3.1-4.1,6-8.3,9.2-12.8c8.2,5.7,17,8.4,27.7,7.7
			C329.6,476.5,326.7,481.9,323.1,486.8z M298,458c-0.9,1.3-1.7,2.6-2.6,3.9c-2.1,3-4.2,6-6.3,8.9c-3.5,4.7-8.7,7-14,5
			c-9.5-3.7-18.8-8.1-28.1-12.2c0,0,0-0.1,0-0.1c0,0,0,0,0,0c0.1-0.5,0.1-0.4,0.1-0.9c5.6-0.5,11.3-0.6,16.8-1.7
			c8.1-1.4,16.1-3.5,23.9-5.9c3-0.9,5.2-1.4,7.5,0.9c0.7,0.7,1.6,1.2,2.7,2C298,457.9,298,457.9,298,458C298,458,298,458,298,458z
			 M411.5,338.4c0,5.3,0,7.1-0.1,8.8c0,2.9-0.1,5.9-0.3,8.8c-1.3,20.2-8,38.9-18.6,56.1c-6.5,10.5-14.3,19.5-23.2,27.5
			c-0.4,0.4-0.8,0.7-1.2,1c-0.6,0.5-1.1,1-1.7,1.5c-0.4,0.3-0.7,0.7-1.1,1c-2.2,1.8-4.5,3.6-6.8,5.3c-2,1.5-4.1,2.9-6.2,4.3
			c-5,3.3-9.6,7-15.6,8.4c-2.5,0.6-5,0.9-7.5,1c-5.4,0.1-10.5-1.2-15.3-4.3c-15.5-9.8-29.8-20.8-41-35.6
			c-17.1-22.6-25.7-48.1-26.1-76.3c-0.2-16.1-0.1-32.2,0-48.3c0-7.7,3.6-12.3,11.2-14.2c22.7-5.8,45.5-8.9,68.4-9.1
			c13.8-0.1,27.6,0.8,41.5,2.8c11.1,1.6,22.1,4,33.1,6.4c7,1.5,10.7,6.6,10.7,13.7c0.1,8.9,0,17.9,0.1,26.8c0,0-0.1,0-0.2,0
			c0,0,0,0.1,0,0.1C411.3,324.1,411.7,338.4,411.5,338.4z"/>
		<path d="M392.2,412.2c-6.3,10.4-14,19.4-22.9,27.4c8.9-8,16.8-17,23.2-27.5c10.6-17.2,17.3-35.9,18.6-56.1
			c0.2-2.9,0.3-5.9,0.3-8.8c-0.1,1.8-0.3,3.5-0.6,8.9C409.5,376.3,402.9,395,392.2,412.2z"/>
		<path d="M336.5,461.1c-2.5,0.6-5,0.9-7.4,1c2.5,0,5-0.4,7.5-1c6-1.4,10.6-5.1,15.6-8.4c2.1-1.4,4.2-2.8,6.2-4.3
			c-2,1.5-4.1,2.9-6.3,4.3C347.2,456,342.5,459.7,336.5,461.1z"/>
		<path d="M400.8,283.5c7,1.5,10.7,6.5,10.7,13.7c0,9,0,17.8,0,26.8c0.1,0,0.2,0,0.2,0c-0.1-8.9,0-17.9-0.1-26.8
			C411.6,290.1,407.9,285,400.8,283.5c-10.9-2.4-21.9-4.8-33-6.4c-13.9-2-27.7-2.9-41.5-2.8c13.7-0.1,27.5,0.8,41.4,2.8
			C378.8,278.7,389.8,281.2,400.8,283.5z"/>
		<path d="M368,440.6c-0.6,0.5-1.1,1-1.7,1.5C366.9,441.6,367.5,441.1,368,440.6z"/>
		<path d="M289.1,470.7c-3.5,4.7-8.8,7.1-14,5c-9.5-3.7-18.7-8.1-28.1-12.2c0,0,0,0.1,0,0.1c9.3,4.1,18.6,8.5,28.1,12.2
			c5.3,2,10.5-0.3,14-5c2.1-2.9,4.2-5.9,6.3-8.9c0.9-1.3,1.7-2.6,2.6-3.9c0,0,0,0,0,0c-0.9,1.3-1.7,2.6-2.6,3.8
			C293.3,464.8,291.3,467.7,289.1,470.7z"/>
		<path d="M202.2,419c-0.4-0.5-0.6-1.1-0.8-1.7C201.6,417.9,201.9,418.5,202.2,419z"/>
		<path d="M201.5,417.3c-0.1-0.3-0.1-0.6-0.1-0.9C201.3,416.7,201.4,417,201.5,417.3z"/>
		<path d="M243,402.9c-12.8-5.9-31-2.2-40.8,10.8C212,400.7,230.2,397.1,243,402.9z"/>
		<path d="M239.8,411c2,0.7,4.2-0.1,5.2-2l0.1-0.1c1.2-2.2,0.2-5-2.1-6c-12.8-5.8-31-2.2-40.8,10.8c-0.4,0.5-0.7,1.2-0.8,1.8
			c-0.1,0.3-0.1,0.6-0.1,0.9s0,0.6,0.1,0.9c0.1,0.6,0.4,1.2,0.8,1.7c0.4,0.5,0.9,0.9,1.5,1.3c1.8,0.9,4,0.5,5.3-1
			c0.5-0.6,1.1-1.2,1.6-1.8C218.8,409.1,228.5,407,239.8,411z"/>
	</g>
	<path d="M329.1,430.1c-5.1-0.1-9.7-1.6-13.6-4.9c-11.9-9.7-23.8-19.5-35.7-29.3c-2.1-1.7-3.7-3.6-2.3-6.4c1.4-2.7,3.8-2.7,6.5-2.2
		c10.7,2,21.3,4,32,5.9c12.3,2.2,24.4,0.6,36.5-1.8c7.6-1.5,15.2-2.8,22.8-4.2c2.5-0.5,4.5,0.1,5.6,2.4c1.5,3.2-0.6,5.5-4.3,7.5
		c-11.7,6.1-23.8,19.1-30.2,24.6C340.8,426.4,335.9,430.1,329.1,430.1z M298.3,398.7c0.7,1.2,0.8,1.5,1,1.6
		c7.4,6.1,14.7,12.2,22.2,18.1c4.6,3.7,10.6,3.6,15.4,0.1c3.4-2.6,6.7-5.4,10.1-8.2c4.3-3.5,8.6-7.1,12.9-10.6
		c-0.3-0.5-0.2-0.4-0.5-0.9C339.2,404.7,319.1,404.5,298.3,398.7z"/>
	<path d="M278.2,344.9c-1.6,1.2-3.9,1.1-5.4-0.2c-2.1-1.8-2.1-4.9,0-6.7c12.3-10.6,30.9-10.3,42.2-1.8c2,1.5,2.4,4.4,0.7,6.3
		l-0.1,0.1l0,0c-1.4,1.6-3.7,2-5.5,0.9C299.2,336.6,288.6,337.1,278.2,344.9z"/>
	<path d="M348.1,344.9c-1.6,1.2-3.9,1.1-5.4-0.2c-2.1-1.8-2.1-4.9,0-6.7c12.3-10.6,30.9-10.3,42.2-1.8c2,1.5,2.4,4.4,0.7,6.3
		l-0.1,0.1l0,0c-1.4,1.6-3.7,2-5.5,0.9C369,336.6,358.5,337.1,348.1,344.9z"/>
</g>
</svg>
