<?xml version="1.0" encoding="utf-8"?>
<!-- Generator: Adobe Illustrator 26.3.1, SVG Export Plug-In . SVG Version: 6.00 Build 0)  -->
<svg version="1.1" id="Capa_1" xmlns="http://www.w3.org/2000/svg" xmlns:xlink="http://www.w3.org/1999/xlink" x="0px" y="0px"
	 viewBox="0 0 595.3 841.9" style="enable-background:new 0 0 595.3 841.9;" xml:space="preserve">
<style type="text/css">
	.st0{fill:#FFFFFF;}
</style>
<g id="COkrHY.tif">
	<g>
		<path class="st0" d="M231.3,608.4c7-7,13.8-13.8,20.6-20.6c-3-3.1-6.3-6.5-9.1-9.3c-7,7-13.9,13.8-20.6,20.5
			C225.1,602,228.3,605.3,231.3,608.4z M356.6,578.5c-3.2,3.2-6.5,6.5-9.4,9.4c6.6,6.7,13.4,13.6,20,20.3c3.3-3.1,6.7-6.3,9.9-9.2
			C370.1,592,363.4,585.2,356.6,578.5z M221.8,462.5c7.1,7.1,13.8,13.8,20.6,20.6c3.2-3.1,6.6-6.4,9.4-9.2
			c-7-7.1-13.8-13.9-20.5-20.7C228.3,456.1,225,459.4,221.8,462.5z M346.7,473.5c1.6,1.6,3.3,3.2,4.9,4.8c2.5,2.5,6.6,2.4,9.1-0.1
			c3.8-3.8,7.5-7.5,11.2-11.2c2.5-2.5,2.5-6.5,0.1-9c-0.1-0.1-0.2-0.2-0.2-0.2c-2.5-2.6-6.7-2.6-9.2-0.1
			C357.3,462.9,352,468.2,346.7,473.5z M196.5,523.5c0,5.2,0,9.9,0,14.5c9.9,0,19.4,0,28.9,0c0-5,0-9.7,0-14.5
			C215.6,523.5,206.2,523.5,196.5,523.5z M402.6,523.7c-10,0-19.6,0-29.1,0c0,5,0,9.7,0,14.2c9.9,0,19.4,0,29.1,0
			C402.6,533.1,402.6,528.7,402.6,523.7z"/>
		<path d="M307.4,235.6c0,54.1,0,107.8,0,162.1c6.6,0,13.2,0,19.8,0c6.5,0,9.1,2.6,9.1,9c0,18.8,0.2,37.6-0.2,56.4
			c0,2.7-1.9,6-4,7.7c-3.8,3.1-4.4,7.8-0.3,10.5c14.1,9.5,22.5,22.6,25.8,39.2c6.3,31-16.8,64.1-48.1,68.6
			c-33.2,4.8-61.4-15-68.2-47.9c-4.5-22.1,5.5-46,25-59.5c5-3.4,4.7-7.6-0.1-11.3c-1.8-1.4-3.4-4.3-3.5-6.5
			c-0.3-19.5-0.2-38.9-0.1-58.4c0-5.1,2.9-7.8,8.2-7.9c6.8-0.1,13.5,0,20.7,0c0-54,0-107.6,0-162.1L307.4,235.6z M284.7,471.9
			c0,2.4-0.2,4.4,0,6.3c0.9,7.1-1.7,11.3-8.2,15.1c-19.6,11.2-26.6,36-17,56.4s33.1,30.3,54.3,22.7c17-6.1,27.1-18.5,29.1-36.3
			c2.2-19.1-5.5-34.1-22.3-43.7c-4.8-2.8-7.1-6-6.6-11.5c0.3-2.9,0-5.8,0-8.9C304.1,471.9,294.9,471.9,284.7,471.9z M277.8,417.8
			v33.5c0,2.8,2.2,5,5,5h33.3c2.8,0,5-2.2,5-5v-33.5c0-2.8-2.2-5-5-5h-33.3C280,412.8,277.8,415,277.8,417.8z"/>
		<path d="M226.8,603.7c0,0-0.1-0.1-0.1-0.1c-2.5-2.5-2.4-6.6,0.1-9.1c3.8-3.8,7.6-7.6,11.5-11.4c2.5-2.5,6.6-2.5,9.2,0
			c0,0,0.1,0.1,0.1,0.1c2.5,2.5,2.5,6.6,0,9.1c-3.8,3.8-7.6,7.6-11.4,11.5C233.4,606.3,229.3,606.3,226.8,603.7z"/>
		<path d="M299.2,633.9c-0.1,0-0.1,0-0.2,0c-3.5-0.1-6.4-2.9-6.4-6.5c0-5.3,0-10.7,0-16.2c0-3.6,2.9-6.5,6.5-6.5c0,0,0.1,0,0.1,0
			c3.5,0,6.4,2.9,6.4,6.4c0,5.4,0,10.7,0,16.2C305.8,631,302.8,634,299.2,633.9z"/>
		<path d="M361.2,583.1l11.2,11.2c2.6,2.6,2.5,6.8-0.2,9.3c-0.1,0.1-0.3,0.2-0.4,0.4c-2.6,2.4-6.5,2.3-9-0.2
			c-3.7-3.7-7.4-7.5-11.1-11.3c-2.5-2.5-2.5-6.6,0-9.1c0.1-0.1,0.2-0.2,0.3-0.3C354.5,580.6,358.7,580.6,361.2,583.1z"/>
		<path d="M226.4,457.9c0.1-0.1,0.1-0.1,0.2-0.2c2.5-2.5,6.6-2.5,9.1,0.1c3.8,3.8,7.6,7.6,11.4,11.5c2.5,2.5,2.5,6.7-0.1,9.2
			c-0.1,0.1-0.1,0.1-0.2,0.2c-2.5,2.5-6.6,2.4-9.1-0.1c-3.7-3.8-7.5-7.6-11.4-11.5C223.9,464.6,223.9,460.4,226.4,457.9z"/>
		<path d="M351.5,468.7l11.1-11.1c2.6-2.6,6.7-2.5,9.2,0.1l0.2,0.2c2.4,2.5,2.4,6.5-0.1,9c-3.7,3.7-7.4,7.5-11.2,11.3
			c-2.5,2.5-6.6,2.6-9.1,0.1c0,0-0.1-0.1-0.1-0.1C348.8,475.6,348.8,471.4,351.5,468.7z"/>
		<path d="M203,523.5h16c3.6,0,6.5,2.9,6.5,6.5v1.6c0,3.6-2.9,6.5-6.5,6.5h-16c-3.6,0-6.5-2.9-6.5-6.5V530
			C196.5,526.4,199.4,523.5,203,523.5z"/>
		<path d="M402.6,530.2v1.3c0,3.6-2.9,6.5-6.5,6.5H380c-3.6,0-6.5-2.9-6.5-6.5v-1.3c0-3.6,2.9-6.5,6.5-6.5h16.2
			C399.7,523.7,402.6,526.6,402.6,530.2z"/>
		<path class="st0" d="M284.7,471.9c10.1,0,19.4,0,29.4,0c0,3.1,0.2,6,0,8.9c-0.5,5.5,1.8,8.7,6.6,11.5
			c16.8,9.6,24.5,24.7,22.3,43.7c-2,17.8-12.1,30.2-29.1,36.3c-21.2,7.7-44.7-2.3-54.3-22.7c-9.6-20.4-2.6-45.2,17-56.4
			c6.5-3.8,9.1-8,8.2-15.1C284.5,476.3,284.7,474.3,284.7,471.9z"/>
	</g>
</g>
</svg>
